<svg xmlns="http://www.w3.org/2000/svg" viewBox="0 0 24 24" fill="#4A154B">
  <path d="M5.04 15.16a2.27 2.27 0 0 1-2.27 2.27 2.27 2.27 0 0 1-2.27-2.27 2.27 2.27 0 0 1 2.27-2.27h2.27v2.27zm1.14 0a2.27 2.27 0 0 1 2.27-2.27 2.27 2.27 0 0 1 2.27 2.27v5.66a2.27 2.27 0 0 1-2.27 2.27 2.27 2.27 0 0 1-2.27-2.27v-5.66zM8.45 5.04a2.27 2.27 0 0 1-2.27-2.27A2.27 2.27 0 0 1 8.45.5a2.27 2.27 0 0 1 2.27 2.27v2.27H8.45zm0 1.14a2.27 2.27 0 0 1 2.27 2.27 2.27 2.27 0 0 1-2.27 2.27H2.77A2.27 2.27 0 0 1 .5 8.45a2.27 2.27 0 0 1 2.27-2.27h5.68zM18.96 8.45a2.27 2.27 0 0 1 2.27-2.27 2.27 2.27 0 0 1 2.27 2.27 2.27 2.27 0 0 1-2.27 2.27h-2.27V8.45zm-1.14 0a2.27 2.27 0 0 1-2.27 2.27 2.27 2.27 0 0 1-2.27-2.27V2.77A2.27 2.27 0 0 1 15.55.5a2.27 2.27 0 0 1 2.27 2.27v5.68zM15.55 18.96a2.27 2.27 0 0 1 2.27 2.27 2.27 2.27 0 0 1-2.27 2.27 2.27 2.27 0 0 1-2.27-2.27v-2.27h2.27zm0-1.14a2.27 2.27 0 0 1-2.27-2.27 2.27 2.27 0 0 1 2.27-2.27h5.68a2.27 2.27 0 0 1 2.27 2.27 2.27 2.27 0 0 1-2.27 2.27h-5.68z"/>
</svg>
