<svg xmlns="http://www.w3.org/2000/svg" viewBox="0 0 24 24" fill="#5865F2">
  <path d="M20.32 4.37a19.8 19.8 0 0 0-4.89-1.52.07.07 0 0 0-.08.04c-.21.38-.44.87-.61 1.26a18.27 18.27 0 0 0-5.49 0 12.64 12.64 0 0 0-.62-1.26.08.08 0 0 0-.08-.04 19.74 19.74 0 0 0-4.89 1.52.07.07 0 0 0-.03.03C1.11 8.39.34 12.27.74 16.1a.08.08 0 0 0 .03.06 19.9 19.9 0 0 0 5.99 3.03.08.08 0 0 0 .08-.03c.46-.63.87-1.3 1.22-2a.08.08 0 0 0-.04-.11 13.1 13.1 0 0 1-1.87-.9.08.08 0 0 1-.01-.13c.13-.09.25-.19.37-.29a.08.08 0 0 1 .08-.01c3.93 1.8 8.18 1.8 12.07 0a.08.08 0 0 1 .08.01c.12.1.25.2.37.29a.08.08 0 0 1 0 .13c-.6.35-1.22.65-1.87.9a.08.08 0 0 0-.04.11c.36.7.77 1.37 1.22 2a.08.08 0 0 0 .08.03 19.83 19.83 0 0 0 6-3.03.08.08 0 0 0 .03-.05c.47-4.87-.79-9.1-3.36-12.84a.06.06 0 0 0-.03-.03zM8.02 13.72c-1.11 0-2.02-1.02-2.02-2.28s.9-2.28 2.02-2.28c1.13 0 2.04 1.03 2.02 2.28 0 1.26-.9 2.28-2.02 2.28zm7.47 0c-1.11 0-2.02-1.02-2.02-2.28s.9-2.28 2.02-2.28c1.13 0 2.04 1.03 2.02 2.28 0 1.26-.89 2.28-2.02 2.28z"/>
</svg>
